:SAMPLES-PER-SECOND 30
:FULLY-SPECIFIED
:DEGREES
556
root  -7.63152 34.3063 0.960875 6.14327 53.3409 -2.64735
LeftUpLeg  -6.5548 6.78868 6.07296
LeftLeg  7.29472 4.99064 0.313877
LeftFoot  2.07364 -0.00453399 0.185504
LeftToes  -20.9513 6.91067e-007 1.07128e-007
Spine  3.34967 0.742036 0.23866
Spine1  6.70465 1.49041 0.504641
RightShoulder  -0.0114809 2.7501 0.391685
RightArm  38.3309 -41.6296 48.2267
RightForeArm  19.4539 79.958 98.6594
RightHand  10.1165 -37.4344 -28.9075
LeftShoulder1  -0.0078633 2.58901 -7.23354
LeftArm  48.201 33.4028 -37.2012
LeftForeArm  54.3165 -78.3293 -121.584
LeftHand  6.72678 37.7413 19.1391
HEad  -18.8163 -12.6236 -0.813048
RightUpLeg  -12.3388 -15.5984 3.00373
RightLeg  5.17015 -1.63374 -0.041085
RightFoot  6.85514 0.0348924 -0.204996
RightToes  -28.1708 -0.13153 -0.239054
557
root  -7.74036 34.3028 1.17903 6.55572 53.2479 -2.72786
LeftUpLeg  -6.73371 6.75015 6.47319
LeftLeg  6.84471 5.26445 0.289715
LeftFoot  2.52703 -0.0059732 0.237191
LeftToes  -21.5309 6.91067e-007 1.07128e-007
Spine  3.22372 0.730979 0.480063
Spine1  6.45634 1.45421 0.986689
RightShoulder  -0.0119599 2.74509 0.29745
RightArm  38.7932 -41.7224 47.5184
RightForeArm  21.3721 79.8857 101.078
RightHand  10.2963 -37.3104 -29.5093
LeftShoulder1  -0.0079017 2.44336 -7.12013
LeftArm  48.3573 33.5569 -37.5903
LeftForeArm  52.8748 -78.5586 -119.607
LeftHand  6.3635 37.8111 18.066
HEad  -19.4459 -12.0919 -0.973362
RightUpLeg  -12.4178 -14.6557 3.46307
RightLeg  4.53941 -2.36346 -0.0340011
RightFoot  6.82461 0.0395031 -0.291
RightToes  -27.8802 -0.1296 -0.236966
558
root  -7.86049 34.2909 1.38395 6.69479 53.14 -2.78619
LeftUpLeg  -6.85677 6.62384 6.90077
LeftLeg  6.86228 5.50393 0.304578
LeftFoot  2.76696 -0.00619956 0.271097
LeftToes  -22.2775 6.91067e-007 1.07128e-007
Spine  3.22319 0.695702 0.69767
Spine1  6.45806 1.3705 1.42134
RightShoulder  -0.0124558 2.82012 0.18861
RightArm  39.3538 -41.4087 46.9727
RightForeArm  22.7461 79.8406 102.3
RightHand  10.3131 -37.2875 -29.5749
LeftShoulder1  -0.0079206 2.26043 -7.01809
LeftArm  48.4243 33.4825 -38.0419
LeftForeArm  51.3661 -78.773 -117.565
LeftHand  6.04808 37.9577 17.0933
HEad  -19.3252 -11.3926 -1.09187
RightUpLeg  -12.6856 -14.3854 3.92083
RightLeg  4.84901 -2.45299 -0.0485347
RightFoot  6.26904 0.0379227 -0.277119
RightToes  -27.1096 -0.124532 -0.231383
559
root  -7.97872 34.274 1.59174 6.69431 52.9449 -2.84063
LeftUpLeg  -6.94729 6.5971 7.34051
LeftLeg  7.18527 5.71321 0.348376
LeftFoot  2.84393 -0.00546517 0.289309
LeftToes  -22.7923 6.91067e-007 1.07128e-007
Spine  3.29751 0.649712 0.932379
Spine1  6.60922 1.26347 1.89011
RightShoulder  -0.0129526 2.97165 -0.0464224
RightArm  39.6617 -40.9106 46.6986
RightForeArm  23.3396 79.8307 102.523
RightHand  10.3116 -37.3637 -29.5083
LeftShoulder1  -0.00791934 2.02501 -6.84367
LeftArm  48.1901 33.5764 -38.7801
LeftForeArm  49.7746 -78.9966 -115.171
LeftHand  5.6429 38.0019 15.9175
HEad  -18.6263 -10.6361 -1.21308
RightUpLeg  -13.0821 -14.6834 4.43148
RightLeg  5.703 -1.92968 -0.0666277
RightFoot  5.43214 0.0318347 -0.190351
RightToes  -26.0974 -0.117991 -0.223948
560
root  -8.09609 34.2584 1.8057 6.66655 52.7307 -2.84023
LeftUpLeg  -6.9638 6.62968 7.74663
LeftLeg  7.50027 5.96019 0.396224
LeftFoot  2.9829 -0.00547429 0.31648
LeftToes  -23.5377 6.91067e-007 1.07128e-007
Spine  3.43361 0.586378 1.14498
Spine1  6.88282 1.12091 2.31404
RightShoulder  -0.0134077 3.07157 -0.206381
RightArm  39.1941 -40.4996 46.6884
RightForeArm  22.6728 79.8708 101.408
RightHand  10.3078 -37.6721 -29.2464
LeftShoulder1  -0.00789724 1.88464 -6.71952
LeftArm  47.8308 33.634 -39.4552
LeftForeArm  48.4218 -79.1797 -112.948
LeftHand  5.18564 37.8725 14.666
HEad  -17.5842 -9.85835 -1.48655
RightUpLeg  -13.3888 -15.0956 4.88795
RightLeg  6.56181 -1.22352 -0.0600943
RightFoot  4.61757 0.0259411 -0.104584
RightToes  -25.3947 -0.113528 -0.218719
561
root  -8.21526 34.2386 2.01798 6.5759 52.6307 -2.87726
LeftUpLeg  -7.0002 6.50272 8.18231
LeftLeg  7.89142 6.23743 0.457283
LeftFoot  3.0186 -0.005219 0.335115
LeftToes  -23.9952 6.91067e-007 1.07128e-007
Spine  3.66819 0.467025 1.40329
Spine1  7.3516 0.859393 2.8263
RightShoulder  -0.0137831 2.99562 -0.161991
RightArm  38.0607 -40.2123 46.6326
RightForeArm  23.1484 79.866 101.509
RightHand  10.4077 -37.7981 -29.4198
LeftShoulder1  -0.00785364 1.9526 -6.80093
LeftArm  47.2224 33.6161 -40.1034
LeftForeArm  47.4989 -79.3203 -111.021
LeftHand  4.74904 37.7434 13.4615
HEad  -17.1889 -8.96234 -1.87497
RightUpLeg  -13.6789 -15.7094 5.36008
RightLeg  7.46679 -0.372204 -0.0231953
RightFoot  3.73853 0.0207567 -0.0286664
RightToes  -24.686 -0.109092 -0.213389
562
root  -8.33674 34.218 2.21544 6.74027 52.5698 -2.70048
LeftUpLeg  -7.24227 6.39125 8.45543
LeftLeg  8.47131 6.47615 0.540484
LeftFoot  3.0211 -0.00502095 0.348379
LeftToes  -24.4911 6.91067e-007 1.07128e-007
Spine  3.85627 0.331343 1.6062
Spine1  7.72514 0.568815 3.22494
RightShoulder  -0.0140671 2.76518 0.0810349
RightArm  37.0998 -40.2753 46.519
RightForeArm  26.2131 79.7843 103.499
RightHand  10.4443 -37.6903 -29.6083
LeftShoulder1  -0.00778784 1.98622 -6.96532
LeftArm  46.6612 33.8813 -40.4639
LeftForeArm  47.325 -79.3502 -110.581
LeftHand  4.60802 37.6185 13.1017
HEad  -17.6915 -7.94441 -2.04215
RightUpLeg  -13.9945 -16.2012 5.67927
RightLeg  8.2266 0.385283 0.0320273
RightFoot  2.89671 0.0175512 0.0168291
RightToes  -23.6584 -0.102778 -0.205566
563
root  -8.44036 34.2143 2.41786 7.13965 52.6083 -2.44242
LeftUpLeg  -7.84859 6.65773 8.64414
LeftLeg  9.43008 6.2934 0.631143
LeftFoot  3.04315 -0.00406824 0.341825
LeftToes  -25.1524 6.91067e-007 1.07128e-007
Spine  3.84524 0.162562 1.80637
Spine1  7.69842 0.218562 3.61441
RightShoulder  -0.0142825 2.58939 0.230866
RightArm  36.2222 -40.9402 46.4146
RightForeArm  29.1159 79.7055 105.14
RightHand  10.2647 -37.5303 -29.242
LeftShoulder1  -0.0076992 2.07987 -7.13387
LeftArm  46.5806 34.336 -40.6377
LeftForeArm  47.6223 -79.3215 -110.997
LeftHand  4.70466 37.4616 13.4432
HEad  -18.6902 -6.78624 -2.44285
RightUpLeg  -14.2076 -17.1872 6.02544
RightLeg  8.4468 1.59951 0.134693
RightFoot  2.25024 0.0143402 0.0618576
RightToes  -23.0631 -0.099184 -0.200982
564
root  -8.51269 34.2286 2.61878 7.78659 52.63 -2.06631
LeftUpLeg  -9.14949 7.82963 8.57174
LeftLeg  11.5498 6.00245 0.82659
LeftFoot  2.65277 -0.000616707 0.286513
LeftToes  -25.0267 6.91067e-007 1.07128e-007
Spine  3.67462 0.0122402 1.96852
Spine1  7.35209 -0.0866538 3.93024
RightShoulder  -0.0144064 2.42404 0.298688
RightArm  35.396 -41.7203 46.2693
RightForeArm  31.2931 79.6624 105.911
RightHand  10.0014 -37.7018 -28.3754
LeftShoulder1  -0.00758701 2.14557 -7.19013
LeftArm  46.667 34.8822 -40.7003
LeftForeArm  47.7423 -79.3017 -111.284
LeftHand  4.761 37.685 13.519
HEad  -19.491 -5.55124 -2.98417
RightUpLeg  -14.2284 -18.3698 6.29431
RightLeg  8.00953 3.12601 0.237879
RightFoot  1.98906 0.0109375 0.108452
RightToes  -23.6874 -0.102954 -0.205789
